<svg xmlns="http://www.w3.org/2000/svg" preserveAspectRatio="xMinYMin meet" viewBox="0 0 665 560"><path fill="#348899" d="M575.25 315L566 329.5l14 9 8.75-14.25-13.5-9.25zm-7.75 26l-4.75 8 7.75 4.75 5-7.75-8-5zm30.25 5l-10.25 17.25 16.75 9.75 10.25-16.5-16.75-10.5zm-37 24.25l9.75-16.75 17.25 10-10.25 17-16.75-10.25zm27.75 80l6-8.5-8.75-6.25-6 9 8.75 5.75zm11.25-11l15.5-25.75-17.5-10.75-9.75 17.5 36.75 22 6.75-11-11-7-11.75 20.5-9-5.5zm11.75-39.75l10.5-17-17.75-9.75-15.75 28.5-11.5-7.5 6.75-11 27.75 16.75zm3.5 55l-6.5 11L619 472l6.5-11.25-10.5-6.25zm10.5 15.5l-5.75 9.75 8.5 5.25 5.5-9.5-8.25-5.5zm-31 46l14.5-25-7.25-5-4.5 8.25 24.5 14.75-10.25 17.25-17-10.25zm-23 12l-11.25-7.5 7-10.5 11.25 6.75-7 11.25zm19.5-43.75l10.5-17-17-10.25-10 17 16.5 10.25zM477.75 243.5c47.46 63.5 75.75 118.87 89 162.75-7.87-4-12.13-7-12.13-7l-8.5 14.87 15.38 9.13s5.15-10.63 6.38-12.13c2.53 9.14 4.29 18.11 5.5 26.26l-5.5 9.74s-16.51-9.88-16.26-9.5c.02.02 4.63-8.37 4.63-8.37l-8.87-5.13-5 9.5s7.87 4.51 7.87 4.5l-10.63 16.38 18.13 11 10-17.38 7.13 2.88c.39 7.8.71 16.26-.22 22.91l-11.41-7.16-7.25 11.87 12.88 7.5 5.11-9.82c-2.9 17.04-9.96 30.28-20.96 38.85l9.59-16.27-17.62-11L534 506l17.93 10.17c-41.81 30.42-133.73.06-239.43-109.67C496 571 618 446 477.75 243.5z"/><text x="24" y="350" font-family="Verdana" font-size="130">VE</text><text x="274" y="350" font-family="Verdana" font-size="130">ITAS</text><path fill="#346D99" d="M249.86 303.75c7.66 19.78 20.54 48.1 42.14 86.5-22.1-28.03-40.79-59.11-53.32-81.81l11.18-4.69zm-15.91-68.74s1.17 13.37 1.55 22.61l-20.06 2.6c-3.31-8.02-6.74-16.31-6.74-16.31C149.44 79.84 278.12 36.45 471.5 239c-132.17-129.23-244.69-115.45-237.55-3.99zm-51.2-83.26s-5-65.5 59.5-63.5c0 0-71.75-22.75-59.5 63.5zm-25.25 17.5S138 44.75 255.25 64c0 0-129.5-49.25-97.75 105.25zm-29-6.5s-27-172.75 143.75-125c0 0-184-83.75-143.75 125z"/><text x="195" y="350" font-family="Verdana" font-size="130" fill="#346D99">P</text><path fill="#979C9C" d="M350.5 419.5c52.25 42.75 209.25 105.5 163-79.75 28.25 122.75-41.75 156.25-163 79.75zm-64.25-65c-34.5-66-92.5-261.75 102-167-185.75-99.5-153.5 82-102 167z"/></svg>