<svg version="1" xmlns="http://www.w3.org/2000/svg" width="1200" height="1200" viewBox="0 0 900.000000 900.000000"><path d="M373.3 259.6L296.1 414h53.8l50.5-101.1 50.5-101 2.7 5.3c1.5 2.9 24.3 48.4 50.6 101l47.9 95.8h53.8l-77-154c-42.3-84.6-77.3-154.1-77.7-154.4-.4-.2-35.4 69.1-77.9 154z"/><path d="M258.6 295.1c-40.9 5.8-72.7 35.2-83.1 76.8-2.6 10.1-3 14.6-2.9 29.6 0 16 1.8 26.3 6.8 39.7 11.5 30.5 36.2 52.1 67.4 58.8 8.3 1.8 17 1.8 213.7 2 112.8 0 207 .3 209.5.6 2.5.2 6.1.6 8 .9 16 1.8 33.2 9 45.4 19.1 28.2 23.2 35 67.3 15 97.1-2.4 3.6-4.4 7-4.4 7.4 0 .5 5 10.9 11.1 23l11 22.2 3.6-3.4c5-4.8 18.3-20.4 18.3-21.5 0-.3.9-1.9 2-3.4 5.1-7.2 12-24 14.9-36.4 2.6-10.8 3.4-32.1 1.8-45.2-4.1-33-24.6-65.6-53.4-84.7-20-13.3-41.9-20.6-69.8-23.2-2.7-.2-97-.5-209.5-.5-223.6-.2-209.6.2-220.4-6-14.1-8.1-22.5-24.4-23.2-45-.3-10 .1-13.2 3.1-24.5 2-7.6 8.5-17.7 15.8-24.5 4.4-4.1 14.4-8.8 22.3-10.5 4.8-1 13.4-1.5 28.1-1.5H311l12-24 12-24-35.2.1c-19.4.1-38 .6-41.2 1zM579 318l12 24h76v-2.5c0-1.3-1.7-5.1-3.7-8.2-2.1-3.2-4.2-6.6-4.8-7.6-.5-.9-5-8-9.9-15.7l-8.9-14H567l12 24zM178.1 650l-54 108h53.7l54.1-108 54-108h-53.8l-54 108z"/><path d="M670.1 650l54 108h26.4c15.9 0 26.5-.4 26.5-.9 0-.6-24.1-49.2-53.6-108L669.9 542h-53.8l54 108zM22 672.2c-6.3 10-12.2 19.3-13 20.7-.8 1.4-1.7 2.8-2 3.1-.3.3-1.3 1.7-2.3 3.2L3 702h128l12-24 12-24H33.5L22 672.2z"/></svg>